<?xml version="1.0" encoding="utf-8"?>
<svg id="Layer_1" data-name="Layer 1" viewBox="0 0 38.1 38.12" preserveAspectRatio="none" xmlns="http://www.w3.org/2000/svg">
  <path class="headerLogoTargetOutside" d="M 0.25 15.83 L 3.3 15.83 C 4.525 9.321 9.634 4.24 16.15 3.05 L 16.15 0 C 7.968 1.25 1.536 7.653 0.25 15.83 Z M 34.83 15.83 L 37.83 15.83 C 36.57 7.721 30.247 1.337 22.15 0 L 22.15 3 C 28.602 4.283 33.623 9.363 34.83 15.83 Z M 3.3 21.83 L 0.25 21.83 C 1.558 29.994 7.98 36.383 16.15 37.65 L 16.15 34.65 C 9.63 33.442 4.524 28.348 3.3 21.83 Z M 22.15 34.58 L 22.15 37.58 C 30.238 36.269 36.574 29.92 37.87 21.83 L 34.87 21.83 C 33.636 28.281 28.598 33.331 22.15 34.58 Z" style="fill: rgb(43, 255, 165);"/>
  <path class="headerLogoTargetInside" d="M 25.47 18.83 C 25.47 23.741 20.153 26.811 15.9 24.355 C 11.647 21.9 11.647 15.76 15.9 13.305 C 16.87 12.745 17.97 12.45 19.09 12.45 C 22.614 12.45 25.47 15.306 25.47 18.83 Z" style="fill: rgb(43, 255, 165);"/>
</svg>